<svg version="1.0" xmlns="http://www.w3.org/2000/svg" width="257.000000pt" height="153.000000pt"
    viewBox="0 0 257.000000 153.000000" preserveAspectRatio="xMidYMid meet">
    <g transform="translate(0.000000,153.000000) scale(0.100000,-0.100000)" fill="#ffffff" stroke="none">
        <path
            d="M253 1513 c-18 -2 -33 -7 -33 -11 0 -4 -34 -198 -75 -432 -42 -234 -87 -490 -101 -570 -14 -80 -27 -153 -30 -164 -8 -24 26 -189 40 -198 18 -12 24 -9 32 15 4 12 19 49 35 82 27 58 45 133 93 393 13 68 26 125 29 128 2 3 46 9 97 15 186 19 307 67 390 155 58 61 86 119 100 210 21 132 -21 260 -105 315 -84 55 -119 63 -285 65 -85 1 -170 0 -187 -3z m268 -133 c110 -21 163 -85 162 -195 -1 -113 -67 -203 -182 -246 -63 -24 -166 -42 -208 -37 l-29 3 36 205 c20 113 40 222 44 243 l7 37 58 0 c32 0 82 -5 112 -10z" />
        <path
            d="M1100 1512 l-35 -7 -87 -490 c-48 -269 -87 -493 -87 -497 -1 -5 32 -8 73 -8 l74 0 5 33 c3 17 13 73 22 124 l17 92 46 6 c214 25 293 47 382 107 103 68 157 164 167 294 13 165 -49 271 -189 327 -44 17 -78 21 -203 23 -82 1 -166 -1 -185 -4z m321 -149 c26 -12 59 -37 75 -59 26 -34 29 -45 29 -113 -1 -136 -71 -220 -224 -267 -66 -20 -191 -30 -191 -15 0 6 18 113 40 236 22 123 40 230 40 236 0 20 177 6 231 -18z" />
        <path
            d="M1910 1508 c0 -2 -40 -227 -88 -500 l-88 -498 332 0 332 0 6 48 c4 26 9 55 12 65 5 16 -12 17 -250 17 -185 0 -256 3 -256 11 0 17 40 251 46 272 5 15 23 17 198 17 l193 0 6 45 c4 25 9 56 13 70 l6 25 -194 2 -194 3 25 143 24 142 257 0 257 0 6 38 c4 20 9 52 13 70 l7 32 -332 0 c-182 0 -331 -1 -331 -2z" />
        <path
            d="M2185 328 c-219 -93 -478 -162 -645 -173 -126 -9 -270 17 -500 89 -276 86 -293 90 -415 89 -160 -1 -246 -32 -462 -166 -46 -29 -83 -57 -83 -63 0 -7 42 1 116 22 187 55 299 74 427 74 141 0 203 -14 395 -86 197 -75 252 -92 348 -105 147 -21 292 12 504 112 156 75 402 218 394 230 -3 5 -6 9 -7 8 -1 -1 -33 -14 -72 -31z" />
    </g>
</svg>